<svg width="22" height="20" viewBox="0 0 22 20" fill="none" xmlns="http://www.w3.org/2000/svg">
<path d="M7.7 12.5C5.126 12.5 0 14.1714 0 17.5V20H15.4V17.5C15.4 14.1714 10.274 12.5 7.7 12.5ZM2.574 17.1429C3.498 16.3143 5.731 15.3571 7.7 15.3571C9.669 15.3571 11.902 16.3143 12.826 17.1429H2.574ZM7.7 10C9.823 10 11.55 7.75714 11.55 5C11.55 2.24286 9.823 0 7.7 0C5.577 0 3.85 2.24286 3.85 5C3.85 7.75714 5.577 10 7.7 10ZM7.7 2.85714C8.613 2.85714 9.35 3.81429 9.35 5C9.35 6.18571 8.613 7.14286 7.7 7.14286C6.787 7.14286 6.05 6.18571 6.05 5C6.05 3.81429 6.787 2.85714 7.7 2.85714ZM15.444 12.5857C16.72 13.7857 17.6 15.3857 17.6 17.5V20H22V17.5C22 14.6143 18.15 12.9714 15.444 12.5857ZM14.3 10C16.423 10 18.15 7.75714 18.15 5C18.15 2.24286 16.423 0 14.3 0C13.706 0 13.156 0.185714 12.65 0.5C13.343 1.77143 13.75 3.32857 13.75 5C13.75 6.67143 13.343 8.22857 12.65 9.5C13.156 9.81429 13.706 10 14.3 10Z" fill="white" fill-opacity="0.8"/>
</svg>
