<svg width="20" height="20" viewBox="0 0 20 20" fill="none" xmlns="http://www.w3.org/2000/svg">
<path d="M10 3.44828C8.02219 3.44828 6.08879 3.93365 4.4443 4.84301C2.79981 5.75237 1.51809 7.04489 0.761209 8.5571C0.00433286 10.0693 -0.1937 11.7333 0.192152 13.3387C0.578004 14.944 1.53041 16.4187 2.92894 17.5761C4.32746 18.7335 6.10929 19.5217 8.0491 19.841C9.98891 20.1603 11.9996 19.9964 13.8268 19.37C15.6541 18.7437 17.2159 17.6829 18.3147 16.322C19.4135 14.961 20 13.3609 20 11.7241C19.997 9.53001 18.9424 7.42647 17.0677 5.87499C15.193 4.32351 12.6512 3.45079 10 3.44828ZM10 17.931C8.51664 17.931 7.06659 17.567 5.83323 16.885C4.59986 16.203 3.63856 15.2336 3.07091 14.0994C2.50325 12.9653 2.35473 11.7173 2.64411 10.5132C2.9335 9.30921 3.64781 8.20325 4.6967 7.3352C5.7456 6.46715 7.08197 5.876 8.53683 5.6365C9.99168 5.39701 11.4997 5.51993 12.8701 5.98971C14.2406 6.4595 15.4119 7.25505 16.236 8.27577C17.0601 9.29649 17.5 10.4965 17.5 11.7241C17.4978 13.3697 16.7069 14.9474 15.3009 16.1111C13.8948 17.2747 11.9884 17.9292 10 17.931ZM13.801 8.23362C13.9176 8.32973 14.01 8.44393 14.0731 8.56967C14.1362 8.69541 14.1687 8.83023 14.1687 8.96638C14.1687 9.10253 14.1362 9.23734 14.0731 9.36309C14.01 9.48883 13.9176 9.60303 13.801 9.69914L10.8844 12.1129C10.6496 12.3073 10.3311 12.4164 9.99896 12.4164C9.66687 12.4164 9.34837 12.3073 9.11354 12.1129C8.87872 11.9186 8.74679 11.655 8.74679 11.3802C8.74679 11.1053 8.87872 10.8418 9.11354 10.6474L12.0302 8.23362C12.1463 8.13718 12.2843 8.06066 12.4363 8.00844C12.5882 7.95623 12.7511 7.92936 12.9156 7.92936C13.0801 7.92936 13.243 7.95623 13.395 8.00844C13.5469 8.06066 13.6849 8.13718 13.801 8.23362ZM6.25 1.03448C6.25 0.760121 6.3817 0.496996 6.61612 0.302993C6.85054 0.10899 7.16848 0 7.5 0H12.5C12.8315 4.08831e-09 13.1495 0.10899 13.3839 0.302993C13.6183 0.496996 13.75 0.760121 13.75 1.03448C13.75 1.30884 13.6183 1.57197 13.3839 1.76597C13.1495 1.95998 12.8315 2.06897 12.5 2.06897H7.5C7.16848 2.06897 6.85054 1.95998 6.61612 1.76597C6.3817 1.57197 6.25 1.30884 6.25 1.03448Z" fill="white" fill-opacity="0.8"/>
</svg>
